<svg xmlns="http://www.w3.org/2000/svg" xmlns:xlink="http://www.w3.org/1999/xlink" viewBox="113 265 180 180">
  <defs>
    <style>
      .cls-1 {
        fill: #4f6c7b;
        stroke: #8ec2e6;
        stroke-width: 3px;
      }

      .cls-2 {
        filter: url(#Exclusion_1);
      }
    </style>
    <filter id="Exclusion_1" x="113" y="265" width="180" height="180" filterUnits="userSpaceOnUse">
      <feOffset dx="3" dy="3" input="SourceAlpha"/>
      <feGaussianBlur stdDeviation="3" result="blur"/>
      <feFlood flood-opacity="0.98"/>
      <feComposite operator="in" in2="blur"/>
      <feComposite in="SourceGraphic"/>
    </filter>
  </defs>
  <g class="cls-2" transform="matrix(1, 0, 0, 1, 0, 0)">
    <path id="Exclusion_1-2" data-name="Exclusion 1" class="cls-1" d="M109.5,159a49.052,49.052,0,0,1-30-10.124A49.164,49.164,0,0,0,99,109.5a49.712,49.712,0,0,0-1.453-11.953A49.709,49.709,0,0,0,109.5,99a49.165,49.165,0,0,0,39.376-19.5A49.165,49.165,0,0,0,109.5,60a49.712,49.712,0,0,0-11.953,1.453A49.709,49.709,0,0,0,99,49.5,49.165,49.165,0,0,0,79.5,10.123,49.052,49.052,0,0,1,109.5,0,49.556,49.556,0,0,1,159,49.5a49.053,49.053,0,0,1-10.123,30h0A49.052,49.052,0,0,1,159,109.5,49.556,49.556,0,0,1,109.5,159Zm-60,0A49.556,49.556,0,0,1,0,109.5a49.053,49.053,0,0,1,10.123-30h0v0A49.054,49.054,0,0,1,0,49.5,49.556,49.556,0,0,1,49.5,0a49.053,49.053,0,0,1,30,10.123A49.164,49.164,0,0,0,60,49.5a49.712,49.712,0,0,0,1.453,11.953A49.709,49.709,0,0,0,49.5,60,49.165,49.165,0,0,0,10.123,79.5,49.164,49.164,0,0,0,49.5,99a49.712,49.712,0,0,0,11.953-1.453A49.71,49.71,0,0,0,60,109.5a49.165,49.165,0,0,0,19.5,39.376A49.052,49.052,0,0,1,49.5,159ZM97.547,97.547h0A49.047,49.047,0,0,1,79.5,88.877,49.768,49.768,0,0,0,88.877,79.5h0A49.771,49.771,0,0,0,79.5,70.124a49.048,49.048,0,0,1,18.047-8.671A49.047,49.047,0,0,1,88.877,79.5h0a49.046,49.046,0,0,1,8.67,18.045Zm-36.094,0v0A49.047,49.047,0,0,1,70.124,79.5h0a49.048,49.048,0,0,1-8.67-18.046A49.048,49.048,0,0,1,79.5,70.124,49.77,49.77,0,0,0,70.125,79.5h0A49.768,49.768,0,0,0,79.5,88.877a49.046,49.046,0,0,1-18.045,8.67Z" transform="translate(120.5 272.5)"/>
  </g>
</svg>
